<mxfile host="app.diagrams.net" modified="2024-05-06T04:50:03.343Z" agent="Mozilla/5.0 (Windows NT 10.0; Win64; x64) AppleWebKit/537.36 (KHTML, like Gecko) Chrome/124.0.0.0 Safari/537.36 Edg/124.0.0.0" version="24.3.1" etag="ocg8HONUbuLJXjY_fxr4" type="github">
  <diagram name="Page-1" id="6ZwPGoZYvh0hYwSJSecd">
    <mxGraphModel>
      <root>
        <mxCell id="0" />
        <mxCell id="1" parent="0" />
      </root>
    </mxGraphModel>
  </diagram>
</mxfile>
